<?xml version="1.0" encoding="UTF-8"?>
<svg xmlns="http://www.w3.org/2000/svg" viewBox="0 0 256 256">
  <path fill="#092e20" d="M114.8 35.5h26.4v112.7c-13.5 2.6-23.4 3.6-34.2 3.6-32.1 0-48.9-14.5-48.9-42.4 0-26.8 17.7-44.2 45.2-44.2 4.3 0 7.5.3 11.5 1.3zm0 56.9c-3.1-.8-5.6-1.1-8.9-1.1-13.3 0-21 8.2-21 22.5 0 14 7.3 21.7 20.7 21.7 2.9 0 5.3-.1 9.1-.5v-42.6zm71.9-56.9h26.4v59.3c0 20.4-1.5 30.3-6.1 38.8-4.2 8.1-9.8 13.2-21.3 18.8l-24.2-11.5c11.5-5.4 17-10.1 20.5-17.4 3.7-7.5 4.9-16.2 4.9-39v-49h-.2z"/>
  <path fill="#092e20" d="M198.7 0H57.3C30.4 0 25.6 4.8 25.6 31.7v192.6c0 26.9 4.8 31.7 31.7 31.7h141.4c26.9 0 31.7-4.8 31.7-31.7V31.7c0-26.9-4.8-31.7-31.7-31.7zM151.8 196.5c-19.8 0-29.8-9.2-35.1-23l26.7-13.5c5.1 9.2 9.7 12.7 17.5 12.7 11.3 0 17.8-4.4 17.8-21.6V75.3h26.4v75.6c0 27.4-16 45.6-53.3 45.6z"/>
</svg>