<?xml version="1.0" encoding="UTF-8"?>
<svg xmlns="http://www.w3.org/2000/svg" viewBox="0 0 456 456">
  <path fill="#512bd4" d="M81.2 378.4V229.7l74.5 148.8h42.7l74.5-148.8v148.8h74.9V77.6h-96.4l-73.9 151.6-73.9-151.6H7.3v300.8z"/>
  <path fill="#512bd4" d="M375.6 378.4c42.7 0 73.9-20.2 73.9-48.6 0-28.4-17.1-43.3-59.8-52.5l-25.7-5.6c-18.8-3.9-24.5-7.8-24.5-15.6 0-9.4 8.6-15 22.7-15 13.3 0 29 5 43.9 15l36.4-43.9c-20.2-15.6-49.2-25.1-77-25.1-40.8 0-73.3 19.6-73.3 47.4 0 29.6 19.6 43.3 61.6 52.5l28.4 6.1c16.5 3.3 19.6 7.8 19.6 14.4 0 10.6-11.1 15.6-26.2 15.6-20.2 0-39.6-8.3-55.9-21.3l-39 41.4c23.5 20.2 58.1 35.2 95.9 35.2z"/>
</svg>