<?xml version="1.0" encoding="UTF-8"?>
<svg xmlns="http://www.w3.org/2000/svg" viewBox="0 0 24 24">
  <path fill="#009688" d="M12 0C5.375 0 0 5.375 0 12s5.375 12 12 12 12-5.375 12-12S18.625 0 12 0zm.768 4.105c.183 0 .363.053.525.157.125.083.287.185.287.185l.037.025c1.898 1.203 3.797 2.41 5.695 3.61.23.15.389.37.485.63.015.042.035.082.047.125.096.292.075.594-.06.87-.045.088-.103.17-.169.248-.427.503-.853 1.007-1.28 1.512-.427.505-.853 1.01-1.28 1.513-.428.502-.853 1.006-1.28 1.51-.427.503-.854 1.008-1.28 1.512-.428.505-.854 1.01-1.28 1.513-.243.285-.5.508-.862.58-.185.036-.373.043-.56.014-.295-.047-.558-.182-.785-.365l-.116-.087-.116-.087-.117-.087-.115-.087-.115-.087-.116-.087-.115-.087-.115-.085c-.705-.525-1.41-1.045-2.115-1.57-.705-.527-1.41-1.047-2.115-1.572-.245-.18-.435-.397-.58-.65-.055-.097-.1-.197-.135-.302-.077-.232-.087-.475-.037-.713.023-.108.06-.213.107-.315.194-.417.447-.793.743-1.124.737-.82 1.468-1.644 2.205-2.463.148-.165.295-.33.443-.495l.148-.167c.738-.827 1.477-1.653 2.215-2.48.52-.58 1.035-1.167 1.555-1.747.22-.245.461-.48.688-.725.106-.115.21-.235.307-.357.067-.087.143-.167.213-.252.035-.042.075-.083.112-.124.17-.19.372-.343.597-.455.217-.107.45-.17.69-.187z"/>
</svg>