<?xml version="1.0" encoding="UTF-8"?>
<svg xmlns="http://www.w3.org/2000/svg" viewBox="0 0 256 256">
  <path fill="#E10098" d="M128 0C57.3 0 0 57.3 0 128s57.3 128 128 128 128-57.3 128-128S198.7 0 128 0zm78.2 183.6c-3.8 6.6-9.1 12.2-15.8 16.8-6.7 4.6-14.7 8.1-24 10.5-9.3 2.4-19.5 3.6-30.4 3.6-10.9 0-21-1.2-30.4-3.6-9.3-2.4-17.3-5.9-24-10.5-6.7-4.6-12-10.2-15.8-16.8-3.8-6.6-5.7-14-5.7-22.2h24.4c0 4.9 1.2 9.3 3.5 13.2 2.3 3.9 5.5 7.2 9.5 9.8 4 2.6 8.7 4.6 14 5.9 5.3 1.3 11 2 17.1 2s11.8-.7 17.1-2c5.3-1.3 10-3.3 14-5.9 4-2.6 7.2-5.9 9.5-9.8 2.3-3.9 3.5-8.3 3.5-13.2 0-4.9-1.2-9.3-3.5-13.2-2.3-3.9-5.5-7.2-9.5-9.8-4-2.6-8.7-4.6-14-5.9-5.3-1.3-11-2-17.1-2h-24.4v-20h24.4c6.1 0 11.8-.7 17.1-2 5.3-1.3 10-3.3 14-5.9 4-2.6 7.2-5.9 9.5-9.8 2.3-3.9 3.5-8.3 3.5-13.2 0-4.9-1.2-9.3-3.5-13.2-2.3-3.9-5.5-7.2-9.5-9.8-4-2.6-8.7-4.6-14-5.9-5.3-1.3-11-2-17.1-2s-11.8.7-17.1 2c-5.3 1.3-10 3.3-14 5.9-4 2.6-7.2 5.9-9.5 9.8-2.3 3.9-3.5 8.3-3.5 13.2H84.7c0-8.2 1.9-15.6 5.7-22.2 3.8-6.6 9.1-12.2 15.8-16.8 6.7-4.6 14.7-8.1 24-10.5 9.3-2.4 19.5-3.6 30.4-3.6 10.9 0 21 1.2 30.4 3.6 9.3 2.4 17.3 5.9 24 10.5 6.7 4.6 12 10.2 15.8 16.8 3.8 6.6 5.7 14 5.7 22.2 0 6.2-1.5 11.9-4.4 17.1-2.9 5.2-7 9.6-12.1 13.2 5.1 3.6 9.2 8 12.1 13.2 2.9 5.2 4.4 10.9 4.4 17.1 0 8.2-1.9 15.6-5.7 22.2z"/>
</svg>