<?xml version="1.0" encoding="UTF-8"?>
<svg xmlns="http://www.w3.org/2000/svg" viewBox="0 0 256 256">
  <path fill="#1976D2" d="M128 0C57.3 0 0 57.3 0 128s57.3 128 128 128 128-57.3 128-128S198.7 0 128 0zm58.7 186.7c-2.9 5-6.9 9.3-11.8 12.8-4.9 3.5-10.7 6.2-17.3 8.1-6.6 1.9-13.8 2.8-21.6 2.8-7.8 0-15-1-21.6-2.9-6.6-1.9-12.3-4.6-17.2-8.1-4.9-3.5-8.8-7.7-11.7-12.7-2.9-5-4.4-10.5-4.4-16.7h18.8c0 3.8.9 7.2 2.7 10.2 1.8 3 4.2 5.5 7.3 7.5 3.1 2 6.7 3.5 10.8 4.5 4.1 1 8.5 1.5 13.2 1.5 4.7 0 9.1-.5 13.2-1.5 4.1-1 7.7-2.5 10.8-4.5 3.1-2 5.5-4.5 7.3-7.5 1.8-3 2.7-6.4 2.7-10.2 0-3.8-.9-7.2-2.7-10.2-1.8-3-4.2-5.5-7.3-7.5-3.1-2-6.7-3.5-10.8-4.5-4.1-1-8.5-1.5-13.2-1.5h-18.8v-15.4h18.8c4.7 0 9.1-.5 13.2-1.5 4.1-1 7.7-2.5 10.8-4.5 3.1-2 5.5-4.5 7.3-7.5 1.8-3 2.7-6.4 2.7-10.2 0-3.8-.9-7.2-2.7-10.2-1.8-3-4.2-5.5-7.3-7.5-3.1-2-6.7-3.5-10.8-4.5-4.1-1-8.5-1.5-13.2-1.5-4.7 0-9.1.5-13.2 1.5-4.1 1-7.7 2.5-10.8 4.5-3.1 2-5.5 4.5-7.3 7.5-1.8 3-2.7 6.4-2.7 10.2H78.3c0-6.2 1.5-11.7 4.4-16.7 2.9-5 6.8-9.2 11.7-12.7 4.9-3.5 10.6-6.2 17.2-8.1 6.6-1.9 13.8-2.9 21.6-2.9 7.8 0 15 1 21.6 2.9 6.6 1.9 12.4 4.6 17.3 8.1 4.9 3.5 8.9 7.7 11.8 12.7 2.9 5 4.4 10.5 4.4 16.7 0 4.8-1.1 9.2-3.4 13.2-2.3 4-5.4 7.4-9.3 10.2 3.9 2.8 7 6.2 9.3 10.2 2.3 4 3.4 8.4 3.4 13.2 0 6.2-1.5 11.7-4.4 16.7z"/>
</svg>