<?xml version="1.0" encoding="UTF-8"?>
<svg xmlns="http://www.w3.org/2000/svg" viewBox="0 0 512 512">
  <path fill="#ff2d20" d="M504.4,115.83a5.72,5.72,0,0,0-.28-.68,8.52,8.52,0,0,0-.53-1.25,6,6,0,0,0-.54-.71,9.36,9.36,0,0,0-.72-.94c-.23-.22-.52-.4-.77-.6a8.84,8.84,0,0,0-.9-.68L404.4,55.55a8,8,0,0,0-8,0L300.12,111h0a8.07,8.07,0,0,0-.88.69,7.68,7.68,0,0,0-.78.6,8.23,8.23,0,0,0-.72.93c-.17.24-.39.45-.54.71a9.7,9.7,0,0,0-.52,1.25c-.08.23-.21.44-.28.68a8.08,8.08,0,0,0-.28,2.08V223.18l-80,46.17V63.44a8,8,0,0,0-.28-2.09c-.06-.24-.2-.45-.28-.68a8.24,8.24,0,0,0-.52-1.25c-.14-.26-.37-.47-.54-.71a9.32,9.32,0,0,0-.72-.94,9.12,9.12,0,0,0-.78-.6,9.16,9.16,0,0,0-.88-.68L115.61,1.07a8,8,0,0,0-8,0L11.34,56.49h0a6.52,6.52,0,0,0-.88.69,7.81,7.81,0,0,0-.79.6,8.15,8.15,0,0,0-.71.93c-.18.24-.4.45-.55.71a7.77,7.77,0,0,0-.51,1.25c-.08.23-.21.44-.28.68a8.08,8.08,0,0,0-.28,2.08V398.56a8,8,0,0,0,4,6.95l192.5,110.84a8.83,8.83,0,0,0,1.33.54c.21.08.41.2.63.26a7.92,7.92,0,0,0,4.1,0c.2-.05.37-.16.55-.22a8.6,8.6,0,0,0,1.4-.58L404.4,405.91a8,8,0,0,0,4-6.95V287.88l92.24-53.11a8,8,0,0,0,4-7V117.92A8.63,8.63,0,0,0,504.4,115.83ZM111.6,17.28h0l80,46.18L111.6,109.63,31.6,63.45ZM103.6,397,23.6,350.77V120.54L103.6,166.72Zm8-241.74L191.6,109.6v99.53l-80,46.13ZM300.12,336,220.12,382.17,140.12,336,220.12,289.83ZM212.12,401.09v80.6l-80-46.17V355.71Zm8-29.43,80-46.17v99.52l-80,46.18ZM408.4,371.83,328.4,418V338.26l80-46.17ZM400.4,282,320.4,328.17,240.4,282l80-46.17ZM232.4,255.43v-80.6l80,46.17V300.77Zm0-99.53V76.31l80,46.16v79.59Zm184,20.31L336.4,122.54,416.4,76.36l80,46.18Z"/>
</svg>