<?xml version="1.0" encoding="UTF-8"?>
<svg xmlns="http://www.w3.org/2000/svg" viewBox="0 0 256 256">
  <path fill="#00ACC1" d="M128 0C57.3 0 0 57.3 0 128s57.3 128 128 128 128-57.3 128-128S198.7 0 128 0zm0 230.4c-56.6 0-102.4-45.8-102.4-102.4S71.4 25.6 128 25.6s102.4 45.8 102.4 102.4-45.8 102.4-102.4 102.4zm51.2-153.6H76.8c-7 0-12.8 5.7-12.8 12.8v76.8c0 7 5.7 12.8 12.8 12.8h102.4c7 0 12.8-5.7 12.8-12.8V89.6c0-7-5.7-12.8-12.8-12.8zm-51.2 25.6c21.2 0 38.4 17.2 38.4 38.4s-17.2 38.4-38.4 38.4-38.4-17.2-38.4-38.4 17.2-38.4 38.4-38.4z"/>
</svg>