<?xml version="1.0" encoding="UTF-8"?>
<svg xmlns="http://www.w3.org/2000/svg" viewBox="0 0 411 155">
  <path fill="#CC0000" d="M401.9 77.8c0 42.8-34.9 77.7-77.7 77.7-43 0-77.7-34.9-77.7-77.7 0-42.9 34.8-77.7 77.7-77.7 42.8 0 77.7 34.8 77.7 77.7zm-387.6 0c0 42.8 34.8 77.7 77.7 77.7 42.8 0 77.7-34.9 77.7-77.7 0-42.9-34.9-77.7-77.7-77.7-42.9 0-77.7 34.8-77.7 77.7z"/>
  <path fill="#CC0000" d="M232.2 77.8c0 42.8-34.9 77.7-77.7 77.7-43 0-77.7-34.9-77.7-77.7 0-42.9 34.8-77.7 77.7-77.7 42.8 0 77.7 34.8 77.7 77.7z"/>
</svg>