<?xml version="1.0" encoding="UTF-8"?>
<svg xmlns="http://www.w3.org/2000/svg" viewBox="0 0 256 256">
  <path fill="#F05138" d="M128 0C57.3 0 0 57.3 0 128s57.3 128 128 128 128-57.3 128-128S198.7 0 128 0zm71.1 149.3c-1.4 4.2-3.5 8.1-6.2 11.7-2.7 3.6-6 6.8-9.7 9.4-3.7 2.6-7.9 4.6-12.4 5.9-4.5 1.3-9.3 2-14.3 2-7.6 0-14.5-1.5-20.8-4.4-6.3-2.9-11.7-7-16.2-12.2-4.5-5.2-8-11.4-10.5-18.6-2.5-7.2-3.7-15.2-3.7-23.8 0-8.6 1.2-16.6 3.7-23.8 2.5-7.2 6-13.4 10.5-18.6 4.5-5.2 9.9-9.3 16.2-12.2 6.3-2.9 13.2-4.4 20.8-4.4 5 0 9.8.7 14.3 2 4.5 1.3 8.7 3.3 12.4 5.9 3.7 2.6 7 5.8 9.7 9.4 2.7 3.6 4.8 7.5 6.2 11.7h-18.8c-1.1-2.2-2.5-4.2-4.2-5.9-1.7-1.7-3.6-3.2-5.7-4.4-2.1-1.2-4.4-2.1-6.9-2.7-2.5-.6-5-.9-7.6-.9-4.8 0-9.1.9-13 2.8-3.9 1.9-7.2 4.5-10 7.8-2.8 3.3-4.9 7.2-6.4 11.7-1.5 4.5-2.2 9.3-2.2 14.4 0 5.1.7 9.9 2.2 14.4 1.5 4.5 3.6 8.4 6.4 11.7 2.8 3.3 6.1 5.9 10 7.8 3.9 1.9 8.2 2.8 13 2.8 2.6 0 5.1-.3 7.6-.9 2.5-.6 4.8-1.5 6.9-2.7 2.1-1.2 4-2.7 5.7-4.4 1.7-1.7 3.1-3.7 4.2-5.9h18.8z"/>
</svg>